<?xml version="1.0" encoding="UTF-8" standalone="no"?>
<!DOCTYPE svg PUBLIC "-//W3C//DTD SVG 1.1//EN"
 "http://www.w3.org/Graphics/SVG/1.1/DTD/svg11.dtd">
<!-- Generated by graphviz version 12.2.1 (20241206.2353)
 -->
<!-- Pages: 1 -->
<svg width="350pt" height="261pt"
 viewBox="0.00 0.00 350.00 261.44" xmlns="http://www.w3.org/2000/svg" xmlns:xlink="http://www.w3.org/1999/xlink">
<g id="graph0" class="graph" transform="scale(1 1) rotate(0) translate(4 257.44)">
<polygon fill="white" stroke="none" points="-4,4 -4,-257.44 346,-257.44 346,4 -4,4"/>
<!-- top -->
<g id="node1" class="node">
<title>top</title>
<g id="a_node1"><a xlink:title="root directory" target="_blank">
<polygon fill="#b6b6ae" stroke="#8c8484" points="207,-253.44 204,-257.44 183,-257.44 180,-253.44 135,-253.44 135,-217.44 207,-217.44 207,-253.44"/>
<text text-anchor="middle" x="171" y="-230.39" font-family="Courier,monospace" font-size="14.00">/</text>
</a>
</g>
</g>
<!-- 0 -->
<!-- top&#45;&#45;0 -->
<g id="edge1" class="edge">
<title>top&#45;&#45;0</title>
<path fill="none" stroke="#8c8484" stroke-width="4" d="M171,-217.04C171,-201.27 171,-181.08 171,-181.08"/>
</g>
<!-- bin -->
<g id="node2" class="node">
<title>bin</title>
<g id="a_node2"><a xlink:title="where some built&#45;in programs are stored" target="_blank">
<polygon fill="#b6b6ae" stroke="#8c8484" points="72,-144.72 69,-148.72 48,-148.72 45,-144.72 0,-144.72 0,-108.72 72,-108.72 72,-144.72"/>
<text text-anchor="middle" x="36" y="-121.67" font-family="Courier,monospace" font-size="14.00">bin</text>
</a>
</g>
</g>
<!-- data -->
<g id="node3" class="node">
<title>data</title>
<g id="a_node3"><a xlink:title="miscellaneous data files" target="_blank">
<polygon fill="#b6b6ae" stroke="#8c8484" points="162,-144.72 159,-148.72 138,-148.72 135,-144.72 90,-144.72 90,-108.72 162,-108.72 162,-144.72"/>
<text text-anchor="middle" x="126" y="-121.67" font-family="Courier,monospace" font-size="14.00">data</text>
</a>
</g>
</g>
<!-- home -->
<g id="node4" class="node">
<title>home</title>
<g id="a_node4"><a xlink:title="where users’ personal directories are located" target="_blank">
<polygon fill="#fcdc34" stroke="#a18004" points="252,-144.72 249,-148.72 228,-148.72 225,-144.72 180,-144.72 180,-108.72 252,-108.72 252,-144.72"/>
<text text-anchor="middle" x="216" y="-121.67" font-family="Courier,monospace" font-size="14.00">home</text>
</a>
</g>
</g>
<!-- 3 -->
<!-- home&#45;&#45;3 -->
<g id="edge8" class="edge">
<title>home&#45;&#45;3</title>
<path fill="none" stroke="blue" stroke-width="4" d="M216,-108.32C216,-92.55 216,-72.36 216,-72.36"/>
</g>
<!-- tmp -->
<g id="node5" class="node">
<title>tmp</title>
<g id="a_node5"><a xlink:title="temporary files that don’t need to be stored long&#45;term" target="_blank">
<polygon fill="#b6b6ae" stroke="#8c8484" points="342,-144.72 339,-148.72 318,-148.72 315,-144.72 270,-144.72 270,-108.72 342,-108.72 342,-144.72"/>
<text text-anchor="middle" x="306" y="-121.67" font-family="Courier,monospace" font-size="14.00">tmp</text>
</a>
</g>
</g>
<!-- 2 -->
<!-- 0&#45;&#45;2 -->
<g id="edge3" class="edge">
<title>0&#45;&#45;2</title>
<path fill="none" stroke="#8c8484" stroke-width="4" d="M171,-181C171,-181 216,-181 216,-181"/>
</g>
<!-- 1 -->
<!-- 1&#45;&#45;bin -->
<g id="edge4" class="edge">
<title>1&#45;&#45;bin</title>
<path fill="none" stroke="#8c8484" stroke-width="4" d="M126,-181C126,-181 36,-181 36,-181 36,-181 36,-160.84 36,-145.1"/>
</g>
<!-- 1&#45;&#45;data -->
<g id="edge5" class="edge">
<title>1&#45;&#45;data</title>
<path fill="none" stroke="#8c8484" stroke-width="4" d="M126,-181.08C126,-181.08 126,-160.89 126,-145.12"/>
</g>
<!-- 1&#45;&#45;0 -->
<g id="edge2" class="edge">
<title>1&#45;&#45;0</title>
<path fill="none" stroke="#8c8484" stroke-width="4" d="M126,-181C126,-181 171,-181 171,-181"/>
</g>
<!-- 2&#45;&#45;home -->
<g id="edge6" class="edge">
<title>2&#45;&#45;home</title>
<path fill="none" stroke="#8c8484" stroke-width="4" d="M216,-181.08C216,-181.08 216,-160.89 216,-145.12"/>
</g>
<!-- 2&#45;&#45;tmp -->
<g id="edge7" class="edge">
<title>2&#45;&#45;tmp</title>
<path fill="none" stroke="#8c8484" stroke-width="4" d="M216,-181C216,-181 306,-181 306,-181 306,-181 306,-160.84 306,-145.1"/>
</g>
<!-- imhotep -->
<g id="node9" class="node">
<title>imhotep</title>
<polygon fill="#fcdc34" stroke="#a18004" points="161.88,-36 158.88,-40 137.88,-40 134.88,-36 88.12,-36 88.12,0 161.88,0 161.88,-36"/>
<text text-anchor="middle" x="125" y="-12.95" font-family="Courier,monospace" font-size="14.00">imhotep</text>
</g>
<!-- larry -->
<g id="node10" class="node">
<title>larry</title>
<polygon fill="#fcdc34" stroke="#a18004" points="252,-36 249,-40 228,-40 225,-36 180,-36 180,0 252,0 252,-36"/>
<text text-anchor="middle" x="216" y="-12.95" font-family="Courier,monospace" font-size="14.00">larry</text>
</g>
<!-- nelle -->
<g id="node11" class="node">
<title>nelle</title>
<polygon fill="#fcdc34" stroke="#a18004" points="342,-36 339,-40 318,-40 315,-36 270,-36 270,0 342,0 342,-36"/>
<text text-anchor="middle" x="306" y="-12.95" font-family="Courier,monospace" font-size="14.00">nelle</text>
</g>
<!-- 3&#45;&#45;imhotep -->
<g id="edge9" class="edge">
<title>3&#45;&#45;imhotep</title>
<path fill="none" stroke="blue" stroke-width="4" d="M216,-72C216,-72 125.94,-72 125.94,-72 125.94,-72 125.94,-51.95 125.94,-36.28"/>
</g>
<!-- 3&#45;&#45;larry -->
<g id="edge10" class="edge">
<title>3&#45;&#45;larry</title>
<path fill="none" stroke="blue" stroke-width="4" d="M216,-72.36C216,-72.36 216,-52.17 216,-36.4"/>
</g>
<!-- 3&#45;&#45;nelle -->
<g id="edge11" class="edge">
<title>3&#45;&#45;nelle</title>
<path fill="none" stroke="blue" stroke-width="4" d="M216,-72C216,-72 306,-72 306,-72 306,-72 306,-51.95 306,-36.28"/>
</g>
</g>
</svg>
