<?xml version="1.0" encoding="UTF-8" standalone="no"?>
<!DOCTYPE svg PUBLIC "-//W3C//DTD SVG 1.1//EN"
 "http://www.w3.org/Graphics/SVG/1.1/DTD/svg11.dtd">
<!-- Generated by graphviz version 12.2.1 (20241206.2353)
 -->
<!-- Pages: 1 -->
<svg width="350pt" height="153pt"
 viewBox="0.00 0.00 350.00 152.72" xmlns="http://www.w3.org/2000/svg" xmlns:xlink="http://www.w3.org/1999/xlink">
<g id="graph0" class="graph" transform="scale(1 1) rotate(0) translate(4 148.72)">
<polygon fill="white" stroke="none" points="-4,4 -4,-148.72 346,-148.72 346,4 -4,4"/>
<!-- top -->
<g id="node1" class="node">
<title>top</title>
<g id="a_node1"><a xlink:title="root directory" target="_blank">
<polygon fill="#fcdc34" stroke="#a18004" points="207,-144.72 204,-148.72 183,-148.72 180,-144.72 135,-144.72 135,-108.72 207,-108.72 207,-144.72"/>
<text text-anchor="middle" x="171" y="-121.67" font-family="Courier,monospace" font-size="14.00">/</text>
</a>
</g>
</g>
<!-- 0 -->
<!-- top&#45;&#45;0 -->
<g id="edge1" class="edge">
<title>top&#45;&#45;0</title>
<path fill="none" stroke="blue" stroke-width="4" d="M171,-108.32C171,-92.55 171,-72.36 171,-72.36"/>
</g>
<!-- bin -->
<g id="node2" class="node">
<title>bin</title>
<g id="a_node2"><a xlink:title="where some built&#45;in programs are stored" target="_blank">
<polygon fill="#fcdc34" stroke="#a18004" points="72,-36 69,-40 48,-40 45,-36 0,-36 0,0 72,0 72,-36"/>
<text text-anchor="middle" x="36" y="-12.95" font-family="Courier,monospace" font-size="14.00">bin</text>
</a>
</g>
</g>
<!-- data -->
<g id="node3" class="node">
<title>data</title>
<g id="a_node3"><a xlink:title="miscellaneous data files" target="_blank">
<polygon fill="#fcdc34" stroke="#a18004" points="162,-36 159,-40 138,-40 135,-36 90,-36 90,0 162,0 162,-36"/>
<text text-anchor="middle" x="126" y="-12.95" font-family="Courier,monospace" font-size="14.00">data</text>
</a>
</g>
</g>
<!-- home -->
<g id="node4" class="node">
<title>home</title>
<g id="a_node4"><a xlink:title="where users’ personal directories are located" target="_blank">
<polygon fill="#fcdc34" stroke="#a18004" points="252,-36 249,-40 228,-40 225,-36 180,-36 180,0 252,0 252,-36"/>
<text text-anchor="middle" x="216" y="-12.95" font-family="Courier,monospace" font-size="14.00">home</text>
</a>
</g>
</g>
<!-- tmp -->
<g id="node5" class="node">
<title>tmp</title>
<g id="a_node5"><a xlink:title="temporary files that don’t need to be stored long&#45;term" target="_blank">
<polygon fill="#fcdc34" stroke="#a18004" points="342,-36 339,-40 318,-40 315,-36 270,-36 270,0 342,0 342,-36"/>
<text text-anchor="middle" x="306" y="-12.95" font-family="Courier,monospace" font-size="14.00">tmp</text>
</a>
</g>
</g>
<!-- 2 -->
<!-- 0&#45;&#45;2 -->
<g id="edge3" class="edge">
<title>0&#45;&#45;2</title>
<path fill="none" stroke="blue" stroke-width="4" d="M171,-72C171,-72 216,-72 216,-72"/>
</g>
<!-- 1 -->
<!-- 1&#45;&#45;bin -->
<g id="edge4" class="edge">
<title>1&#45;&#45;bin</title>
<path fill="none" stroke="blue" stroke-width="4" d="M126,-72C126,-72 36,-72 36,-72 36,-72 36,-51.95 36,-36.28"/>
</g>
<!-- 1&#45;&#45;data -->
<g id="edge5" class="edge">
<title>1&#45;&#45;data</title>
<path fill="none" stroke="blue" stroke-width="4" d="M126,-72.36C126,-72.36 126,-52.17 126,-36.4"/>
</g>
<!-- 1&#45;&#45;0 -->
<g id="edge2" class="edge">
<title>1&#45;&#45;0</title>
<path fill="none" stroke="blue" stroke-width="4" d="M126,-72C126,-72 171,-72 171,-72"/>
</g>
<!-- 2&#45;&#45;home -->
<g id="edge6" class="edge">
<title>2&#45;&#45;home</title>
<path fill="none" stroke="blue" stroke-width="4" d="M216,-72.36C216,-72.36 216,-52.17 216,-36.4"/>
</g>
<!-- 2&#45;&#45;tmp -->
<g id="edge7" class="edge">
<title>2&#45;&#45;tmp</title>
<path fill="none" stroke="blue" stroke-width="4" d="M216,-72C216,-72 306,-72 306,-72 306,-72 306,-51.95 306,-36.28"/>
</g>
</g>
</svg>
